<svg width="800" height="800" viewBox="0 0 24 24" fill="none" xmlns="http://www.w3.org/2000/svg"><g fill="#fff"><path d="M14.961 5.275a1 1 0 1 0-1.922-.55l-4 14a1 1 0 1 0 1.922.55l4-14ZM5.8 7.399a1 1 0 0 1-.199 1.4L2.41 11.201a1 1 0 0 0 0 1.598L5.6 15.201A1 1 0 0 1 4.4 16.799l-3.192-2.402a3 3 0 0 1 0-4.794L4.399 7.2a1 1 0 0 1 1.4.198ZM18.2 16.601a1 1 0 0 1 .199-1.4l3.192-2.402a1 1 0 0 0 0-1.598L18.4 8.799A1 1 0 0 1 19.6 7.201l3.193 2.402a3 3 0 0 1 0 4.794L19.6 16.8a1 1 0 0 1-1.4-.198Z"/></g></svg>