<svg xmlns="http://www.w3.org/2000/svg" xml:space="preserve" width="800" height="800" fill="#fff" stroke="#fff" stroke-width="4.096" viewBox="-5.12 -5.12 522.24 522.24"><path d="M256.006 81.96c-95.97 0-174.046 78.077-174.046 174.046 0 95.962 78.077 174.034 174.046 174.034 95.962 0 174.034-78.072 174.034-174.034 0-95.969-78.072-174.046-174.034-174.046zm0 322.858c-82.062 0-148.824-66.757-148.824-148.812 0-82.062 66.762-148.824 148.824-148.824 82.054 0 148.812 66.762 148.812 148.824 0 82.055-66.757 148.812-148.812 148.812zM256.006 0c-6.965 0-12.611 5.646-12.611 12.611V49.6c0 6.965 5.646 12.611 12.611 12.611 6.965 0 12.611-5.646 12.611-12.611V12.611C268.617 5.646 262.971 0 256.006 0zM214.767 53.373l-9.572-35.727c-1.802-6.727-8.717-10.724-15.445-8.917-6.727 1.802-10.719 8.717-8.917 15.445l9.572 35.727c1.51 5.635 6.604 9.351 12.174 9.351 1.08 0 2.178-.14 3.271-.434 6.726-1.802 10.719-8.717 8.917-15.445zM163.729 70.949l-18.501-32.032c-3.483-6.031-11.196-8.096-17.228-4.613-6.031 3.483-8.096 11.196-4.613 17.228l18.501 32.032a12.604 12.604 0 0 0 17.229 4.614c6.03-3.484 8.095-11.197 4.612-17.229zM118.976 101.139 92.821 74.983c-4.926-4.925-12.911-4.925-17.836 0-4.925 4.926-4.925 12.911 0 17.836l26.156 26.156c2.462 2.463 5.69 3.694 8.917 3.694s6.456-1.231 8.919-3.694c4.924-4.926 4.924-12.911-.001-17.836zM83.56 141.875l-32.032-18.488c-6.032-3.481-13.745-1.414-17.227 4.618-3.482 6.033-1.414 13.745 4.618 17.227l32.032 18.488a12.608 12.608 0 0 0 17.227-4.618c3.482-6.033 1.414-13.745-4.618-17.227zM59.902 190.406l-35.727-9.572c-6.728-1.803-13.643 2.189-15.445 8.917-1.802 6.728 2.191 13.643 8.917 15.445l35.727 9.572a12.62 12.62 0 0 0 3.271.433c5.568 0 10.664-3.717 12.174-9.35 1.802-6.729-2.191-13.643-8.917-15.445zM49.6 243.395H12.611C5.646 243.395 0 249.041 0 256.006c0 6.965 5.646 12.611 12.611 12.611H49.6c6.965 0 12.611-5.646 12.611-12.611 0-6.965-5.646-12.611-12.611-12.611zM68.818 306.163c-1.802-6.727-8.719-10.723-15.445-8.917l-35.727 9.572c-6.727 1.802-10.719 8.717-8.917 15.445 1.51 5.635 6.604 9.351 12.174 9.351 1.08 0 2.178-.14 3.271-.434l35.727-9.572c6.726-1.802 10.719-8.717 8.917-15.445zM88.18 352.9c-3.482-6.032-11.195-8.099-17.227-4.618L38.921 366.77c-6.032 3.482-8.1 11.194-4.618 17.227a12.605 12.605 0 0 0 17.227 4.618l32.032-18.488c6.031-3.482 8.1-11.194 4.618-17.227zM118.974 393.024c-4.927-4.925-12.911-4.922-17.835.004l-26.156 26.168c-4.925 4.926-4.922 12.911.004 17.835a12.574 12.574 0 0 0 8.915 3.691c3.228 0 6.457-1.232 8.92-3.695l26.156-26.168c4.924-4.926 4.921-12.912-.004-17.835zM159.115 423.824c-6.031-3.483-13.744-1.416-17.227 4.616l-18.501 32.045c-3.483 6.032-1.416 13.745 4.616 17.227a12.607 12.607 0 0 0 17.227-4.616l18.501-32.045c3.483-6.032 1.416-13.745-4.616-17.227zM205.849 443.18c-6.728-1.802-13.643 2.192-15.445 8.92l-9.572 35.74c-1.801 6.728 2.192 13.643 8.92 15.445a12.61 12.61 0 0 0 3.27.432c5.568 0 10.664-3.716 12.175-9.352l9.572-35.74c1.801-6.728-2.192-13.643-8.92-15.445zM256.006 449.789c-6.965 0-12.611 5.646-12.611 12.611v36.988c0 6.965 5.646 12.611 12.611 12.611 6.965 0 12.611-5.646 12.611-12.611V462.4c0-6.965-5.646-12.611-12.611-12.611zM331.183 487.84l-9.572-35.74c-1.802-6.728-8.722-10.718-15.445-8.92-6.728 1.802-10.722 8.717-8.92 15.445l9.572 35.74c1.508 5.636 6.604 9.352 12.174 9.352 1.079 0 2.178-.139 3.271-.432 6.728-1.803 10.722-8.717 8.92-15.445zM388.625 460.485l-18.501-32.045c-3.482-6.032-11.195-8.099-17.227-4.616-6.032 3.482-8.099 11.195-4.616 17.227l18.501 32.045a12.604 12.604 0 0 0 17.227 4.616c6.032-3.482 8.099-11.195 4.616-17.227zM437.029 419.192l-26.168-26.168c-4.926-4.923-12.911-4.923-17.836 0-4.925 4.926-4.925 12.911 0 17.836l26.168 26.168c2.462 2.462 5.69 3.694 8.917 3.694s6.456-1.231 8.919-3.694c4.925-4.926 4.925-12.911 0-17.836zM473.092 366.769l-32.045-18.488c-6.034-3.482-13.745-1.411-17.226 4.621-3.481 6.033-1.412 13.745 4.621 17.226l32.045 18.488a12.607 12.607 0 0 0 17.225-4.621c3.482-6.034 1.413-13.746-4.62-17.226zM494.366 306.817l-35.74-9.572c-6.728-1.801-13.644 2.192-15.445 8.92-1.801 6.728 2.192 13.643 8.92 15.445l35.74 9.572c1.092.293 2.191.433 3.27.433 5.569 0 10.665-3.718 12.175-9.352 1.801-6.729-2.192-13.644-8.92-15.446zM499.389 243.395H462.4c-6.965 0-12.611 5.646-12.611 12.611 0 6.965 5.646 12.611 12.611 12.611h36.988c6.965 0 12.611-5.646 12.611-12.611.001-6.965-5.645-12.611-12.61-12.611zM503.287 189.751c-1.802-6.728-8.719-10.719-15.445-8.92l-35.74 9.572c-6.728 1.802-10.722 8.717-8.92 15.445 1.508 5.636 6.604 9.352 12.174 9.352 1.08 0 2.178-.14 3.271-.433l35.74-9.572c6.728-1.801 10.722-8.716 8.92-15.444zM477.712 128.007c-3.481-6.033-11.192-8.101-17.226-4.621l-32.045 18.488c-6.033 3.481-8.101 11.192-4.621 17.226a12.606 12.606 0 0 0 17.225 4.621l32.045-18.488c6.034-3.481 8.102-11.193 4.622-17.226zM437.029 74.986c-4.923-4.925-12.907-4.928-17.835-.004l-26.168 26.156c-4.926 4.923-4.927 12.909-.004 17.835a12.572 12.572 0 0 0 8.92 3.696 12.57 12.57 0 0 0 8.915-3.693l26.168-26.156c4.926-4.923 4.928-12.908.004-17.834zM384.012 34.304c-6.033-3.482-13.744-1.419-17.228 4.613l-18.501 32.032c-3.483 6.032-1.418 13.745 4.613 17.228a12.609 12.609 0 0 0 17.228-4.614l18.501-32.032c3.483-6.031 1.418-13.744-4.613-17.227zM322.264 8.729c-6.728-1.803-13.643 2.189-15.445 8.917l-9.572 35.727c-1.802 6.728 2.191 13.643 8.917 15.445a12.62 12.62 0 0 0 3.271.433c5.568 0 10.664-3.716 12.174-9.35l9.572-35.727c1.803-6.728-2.19-13.642-8.917-15.445z"/><path d="M362.042 243.384c-6.965 0-12.611 5.646-12.611 12.611 0 51.522-41.916 93.437-93.437 93.437-6.965 0-12.611 5.646-12.611 12.611s5.646 12.611 12.611 12.611c65.43 0 118.661-53.23 118.66-118.66-.001-6.964-5.647-12.61-12.612-12.61zM362.043 203.979c-6.965 0-12.611 5.646-12.611 12.611v4.408c0 6.965 5.646 12.611 12.611 12.611 6.964 0 12.611-5.646 12.611-12.611v-4.408c.001-6.965-5.645-12.611-12.611-12.611z"/></svg>